<svg class="main-svg" xmlns="http://www.w3.org/2000/svg" xmlns:xlink="http://www.w3.org/1999/xlink" width="700" height="300" style="" viewBox="0 0 700 300"><rect x="0" y="0" width="700" height="300" style="fill: rgb(255, 255, 255); fill-opacity: 1;"/><defs id="defs-3017bf"><g class="clips"><clipPath id="clip3017bfxyplot" class="plotclip"><rect width="675" height="267"/></clipPath><clipPath class="axesclip" id="clip3017bfx"><rect x="25" y="0" width="675" height="300"/></clipPath><clipPath class="axesclip" id="clip3017bfy"><rect x="0" y="0" width="700" height="267"/></clipPath><clipPath class="axesclip" id="clip3017bfxy"><rect x="25" y="0" width="675" height="267"/></clipPath></g><g class="gradients"/><g class="patterns"/></defs><g class="bglayer"><rect class="bg" x="25" y="0" width="675" height="267" style="fill: rgb(0, 0, 0); fill-opacity: 0; stroke-width: 0;"/></g><g class="layer-below"><g class="imagelayer"/><g class="shapelayer"/></g><g class="cartesianlayer"><g class="subplot xy"><g class="layer-subplot"><g class="shapelayer"/><g class="imagelayer"/></g><g class="minor-gridlayer"><g class="x"/><g class="y"/></g><g class="gridlayer"><g class="x"><path class="xgrid crisp" transform="translate(130.73000000000002,0)" d="M0,0v267" style="stroke: rgb(128, 128, 128); stroke-opacity: 1; stroke-width: 1px;"/><path class="xgrid crisp" transform="translate(251.13,0)" d="M0,0v267" style="stroke: rgb(128, 128, 128); stroke-opacity: 1; stroke-width: 1px;"/><path class="xgrid crisp" transform="translate(371.53,0)" d="M0,0v267" style="stroke: rgb(128, 128, 128); stroke-opacity: 1; stroke-width: 1px;"/><path class="xgrid crisp" transform="translate(491.93,0)" d="M0,0v267" style="stroke: rgb(128, 128, 128); stroke-opacity: 1; stroke-width: 1px;"/><path class="xgrid crisp" transform="translate(612.33,0)" d="M0,0v267" style="stroke: rgb(128, 128, 128); stroke-opacity: 1; stroke-width: 1px;"/></g><g class="y"><path class="ygrid crisp" transform="translate(0,249.9)" d="M25,0h675" style="stroke: rgb(128, 128, 128); stroke-opacity: 1; stroke-width: 1px;"/><path class="ygrid crisp" transform="translate(0,212.35)" d="M25,0h675" style="stroke: rgb(128, 128, 128); stroke-opacity: 1; stroke-width: 1px;"/><path class="ygrid crisp" transform="translate(0,174.8)" d="M25,0h675" style="stroke: rgb(128, 128, 128); stroke-opacity: 1; stroke-width: 1px;"/><path class="ygrid crisp" transform="translate(0,137.25)" d="M25,0h675" style="stroke: rgb(128, 128, 128); stroke-opacity: 1; stroke-width: 1px;"/><path class="ygrid crisp" transform="translate(0,99.71)" d="M25,0h675" style="stroke: rgb(128, 128, 128); stroke-opacity: 1; stroke-width: 1px;"/><path class="ygrid crisp" transform="translate(0,62.16)" d="M25,0h675" style="stroke: rgb(128, 128, 128); stroke-opacity: 1; stroke-width: 1px;"/><path class="ygrid crisp" transform="translate(0,24.61)" d="M25,0h675" style="stroke: rgb(128, 128, 128); stroke-opacity: 1; stroke-width: 1px;"/></g></g><g class="zerolinelayer"/><path class="xlines-below"/><path class="ylines-below"/><g class="overlines-below"/><g class="xaxislayer-below"/><g class="yaxislayer-below"/><g class="overaxes-below"/><g class="plot" transform="translate(25,0)" clip-path="url(#clip3017bfxyplot)"><g class="scatterlayer mlayer"><g class="trace scatter trace880639" style="stroke-miterlimit: 2; opacity: 1;"><g class="fills"/><g class="errorbars"/><g class="lines"><path class="js-line" d="M37.5,99.71L39.51,62.16L39.51,17.1L43.52,32.12L420.78,249.9L621.45,24.61L637.5,234.88" style="vector-effect: none; fill: none; stroke: rgb(99, 110, 250); stroke-opacity: 1; stroke-width: 2px; opacity: 1;"/></g><g class="points"><path class="point" transform="translate(37.5,99.71)" d="M3,0A3,3 0 1,1 0,-3A3,3 0 0,1 3,0Z" style="opacity: 1; stroke-width: 0px; fill: rgb(99, 110, 250); fill-opacity: 1;"/><path class="point" transform="translate(39.51,62.16)" d="M3,0A3,3 0 1,1 0,-3A3,3 0 0,1 3,0Z" style="opacity: 1; stroke-width: 0px; fill: rgb(99, 110, 250); fill-opacity: 1;"/><path class="point" transform="translate(39.51,17.1)" d="M3,0A3,3 0 1,1 0,-3A3,3 0 0,1 3,0Z" style="opacity: 1; stroke-width: 0px; fill: rgb(99, 110, 250); fill-opacity: 1;"/><path class="point" transform="translate(43.52,32.12)" d="M3,0A3,3 0 1,1 0,-3A3,3 0 0,1 3,0Z" style="opacity: 1; stroke-width: 0px; fill: rgb(99, 110, 250); fill-opacity: 1;"/><path class="point" transform="translate(420.78,249.9)" d="M3,0A3,3 0 1,1 0,-3A3,3 0 0,1 3,0Z" style="opacity: 1; stroke-width: 0px; fill: rgb(99, 110, 250); fill-opacity: 1;"/><path class="point" transform="translate(621.45,24.61)" d="M3,0A3,3 0 1,1 0,-3A3,3 0 0,1 3,0Z" style="opacity: 1; stroke-width: 0px; fill: rgb(99, 110, 250); fill-opacity: 1;"/><path class="point" transform="translate(637.5,234.88)" d="M3,0A3,3 0 1,1 0,-3A3,3 0 0,1 3,0Z" style="opacity: 1; stroke-width: 0px; fill: rgb(99, 110, 250); fill-opacity: 1;"/></g><g class="text"/></g></g></g><g class="overplot"/><path class="xlines-above crisp" d="M24.9,267.05H700" style="fill: none; stroke-width: 0.1px; stroke: rgb(0, 0, 0); stroke-opacity: 1;"/><path class="ylines-above crisp" d="M24.95,0V267" style="fill: none; stroke-width: 0.1px; stroke: rgb(0, 0, 0); stroke-opacity: 1;"/><g class="overlines-above"/><g class="xaxislayer-above"><g class="xtick"><text text-anchor="middle" x="0" y="281.5" transform="translate(130.73000000000002,0)" style="font-family: 'Open Sans', verdana, arial, sans-serif; font-size: 12px; fill: rgb(42, 63, 95); fill-opacity: 1; white-space: pre; opacity: 1;"><tspan class="line" dy="0em" x="0" y="281.5">04:00</tspan><tspan class="line" dy="1.3em" x="0" y="281.5">May 24, 2026</tspan></text></g><g class="xtick"><text text-anchor="middle" x="0" y="281.5" style="font-family: 'Open Sans', verdana, arial, sans-serif; font-size: 12px; fill: rgb(42, 63, 95); fill-opacity: 1; white-space: pre; opacity: 1;" transform="translate(251.13,0)">05:00</text></g><g class="xtick"><text text-anchor="middle" x="0" y="281.5" style="font-family: 'Open Sans', verdana, arial, sans-serif; font-size: 12px; fill: rgb(42, 63, 95); fill-opacity: 1; white-space: pre; opacity: 1;" transform="translate(371.53,0)">06:00</text></g><g class="xtick"><text text-anchor="middle" x="0" y="281.5" style="font-family: 'Open Sans', verdana, arial, sans-serif; font-size: 12px; fill: rgb(42, 63, 95); fill-opacity: 1; white-space: pre; opacity: 1;" transform="translate(491.93,0)">07:00</text></g><g class="xtick"><text text-anchor="middle" x="0" y="281.5" style="font-family: 'Open Sans', verdana, arial, sans-serif; font-size: 12px; fill: rgb(42, 63, 95); fill-opacity: 1; white-space: pre; opacity: 1;" transform="translate(612.33,0)">08:00</text></g></g><g class="yaxislayer-above"><g class="ytick"><text text-anchor="end" x="22.5" y="4.199999999999999" transform="translate(0,249.9)" style="font-family: 'Open Sans', verdana, arial, sans-serif; font-size: 12px; fill: rgb(42, 63, 95); fill-opacity: 1; white-space: pre; opacity: 1;">70</text></g><g class="ytick"><text text-anchor="end" x="22.5" y="4.199999999999999" style="font-family: 'Open Sans', verdana, arial, sans-serif; font-size: 12px; fill: rgb(42, 63, 95); fill-opacity: 1; white-space: pre; opacity: 1;" transform="translate(0,212.35)">75</text></g><g class="ytick"><text text-anchor="end" x="22.5" y="4.199999999999999" style="font-family: 'Open Sans', verdana, arial, sans-serif; font-size: 12px; fill: rgb(42, 63, 95); fill-opacity: 1; white-space: pre; opacity: 1;" transform="translate(0,174.8)">80</text></g><g class="ytick"><text text-anchor="end" x="22.5" y="4.199999999999999" style="font-family: 'Open Sans', verdana, arial, sans-serif; font-size: 12px; fill: rgb(42, 63, 95); fill-opacity: 1; white-space: pre; opacity: 1;" transform="translate(0,137.25)">85</text></g><g class="ytick"><text text-anchor="end" x="22.5" y="4.199999999999999" style="font-family: 'Open Sans', verdana, arial, sans-serif; font-size: 12px; fill: rgb(42, 63, 95); fill-opacity: 1; white-space: pre; opacity: 1;" transform="translate(0,99.71)">90</text></g><g class="ytick"><text text-anchor="end" x="22.5" y="4.199999999999999" style="font-family: 'Open Sans', verdana, arial, sans-serif; font-size: 12px; fill: rgb(42, 63, 95); fill-opacity: 1; white-space: pre; opacity: 1;" transform="translate(0,62.16)">95</text></g><g class="ytick"><text text-anchor="end" x="22.5" y="4.199999999999999" style="font-family: 'Open Sans', verdana, arial, sans-serif; font-size: 12px; fill: rgb(42, 63, 95); fill-opacity: 1; white-space: pre; opacity: 1;" transform="translate(0,24.61)">100</text></g></g><g class="overaxes-above"/></g></g><g class="polarlayer"/><g class="smithlayer"/><g class="ternarylayer"/><g class="geolayer"/><g class="funnelarealayer"/><g class="pielayer"/><g class="iciclelayer"/><g class="treemaplayer"/><g class="sunburstlayer"/><g class="glimages"/><defs id="topdefs-3017bf"><g class="clips"/></defs><g class="layer-above"><g class="imagelayer"/><g class="shapelayer"/></g><g class="infolayer"><g class="g-gtitle"/><g class="g-xtitle"/><g class="g-ytitle"/></g></svg>